<?xml version="1.0" encoding="UTF-8" ?>
<!DOCTYPE svg PUBLIC "-//W3C//DTD SVG 1.1//EN" "http://www.w3.org/Graphics/SVG/1.1/DTD/svg11.dtd">
<svg width="551pt" height="80pt" viewBox="0 0 551 80" version="1.1" xmlns="http://www.w3.org/2000/svg">
<g id="#ffffffff">
</g>
<g id="#010001ff">
<path fill="#010001" opacity="1.00" d=" M 298.00 4.97 C 300.54 4.97 303.08 4.97 305.62 4.98 C 305.62 10.32 305.62 15.66 305.62 21.00 C 311.05 21.00 316.47 21.00 321.91 21.00 C 321.90 23.09 321.90 25.18 321.91 27.28 C 316.48 27.25 311.05 27.27 305.62 27.26 C 305.62 44.18 305.62 61.09 305.62 78.01 C 303.08 78.01 300.54 78.01 298.00 78.01 C 298.00 61.09 298.00 44.18 298.00 27.26 C 292.67 27.26 287.34 27.26 282.01 27.26 C 282.01 25.17 282.00 23.09 282.00 21.00 C 287.33 21.00 292.67 21.00 298.00 21.00 C 298.00 15.66 298.00 10.32 298.00 4.97 Z" />
<path fill="#010001" opacity="1.00" d=" M 341.00 4.97 C 343.54 4.97 346.08 4.97 348.62 4.98 C 348.62 10.32 348.62 15.66 348.62 21.00 C 354.05 21.00 359.47 21.00 364.90 21.00 C 364.90 23.09 364.90 25.18 364.91 27.28 C 359.48 27.25 354.05 27.27 348.62 27.26 C 348.62 44.18 348.61 61.09 348.62 78.00 C 346.08 78.01 343.54 78.01 341.00 78.01 C 341.00 61.09 341.00 44.17 341.00 27.26 C 335.67 27.26 330.34 27.26 325.01 27.26 C 325.01 25.17 325.00 23.09 325.00 21.00 C 330.33 21.00 335.67 21.00 341.00 21.00 C 341.00 15.66 341.00 10.32 341.00 4.97 Z" />
<path fill="#010001" opacity="1.00" d=" M 142.85 12.67 C 145.51 11.61 148.38 11.77 151.16 12.23 C 149.61 26.63 147.96 41.05 147.32 55.52 C 150.64 50.29 153.75 44.10 159.86 41.69 C 162.91 40.96 166.92 40.41 169.21 43.10 C 171.09 45.77 170.34 49.44 168.55 51.95 C 166.25 55.60 162.39 57.78 158.73 59.83 C 161.00 63.87 163.06 68.32 166.78 71.25 C 168.61 72.94 171.05 71.08 173.10 70.84 C 173.03 71.54 172.88 72.93 172.81 73.63 C 169.27 75.18 165.34 76.86 161.44 75.71 C 155.93 72.09 154.35 65.17 150.23 60.34 C 148.37 65.04 147.28 70.00 146.51 74.98 C 144.19 75.24 141.87 75.52 139.55 75.74 C 140.59 54.71 141.90 33.70 142.85 12.67 M 150.28 60.13 C 155.25 58.19 161.39 56.00 163.27 50.46 C 164.05 48.58 162.23 46.06 160.13 47.06 C 155.02 49.60 152.48 55.18 150.28 60.13 Z" />
<path fill="#010001" opacity="1.00" d=" M 398.91 29.38 C 405.48 19.04 421.10 17.39 430.72 24.22 C 436.64 28.65 438.79 36.33 439.35 43.38 C 443.20 42.37 447.91 39.91 451.63 42.42 C 455.45 50.20 456.09 59.10 457.88 67.49 C 461.68 61.28 466.27 54.63 465.77 47.01 C 465.85 44.38 463.89 42.50 462.45 40.55 C 465.34 40.42 468.65 39.91 471.10 41.86 C 473.49 43.97 472.72 47.49 472.03 50.21 C 469.80 56.53 466.27 62.28 462.47 67.76 C 460.48 70.58 458.75 73.70 456.13 75.99 C 454.73 76.03 453.35 75.93 451.97 75.84 C 451.20 68.92 449.65 62.13 448.12 55.36 C 447.21 51.77 446.49 48.03 444.33 44.93 C 442.65 45.10 441.00 45.25 439.33 45.37 C 439.31 54.78 436.98 65.07 429.59 71.49 C 423.59 76.75 414.84 77.12 407.45 75.25 C 399.61 73.15 394.87 65.46 393.60 57.85 C 392.32 48.16 393.26 37.64 398.91 29.38 M 411.49 24.67 C 406.74 26.94 404.14 32.01 402.90 36.90 C 401.07 44.83 401.03 53.26 403.33 61.10 C 404.95 66.35 408.66 71.43 414.25 72.79 C 419.60 73.96 424.86 70.30 427.24 65.67 C 431.11 58.43 431.13 49.89 430.55 41.91 C 429.82 36.42 428.11 30.63 423.90 26.77 C 420.67 23.68 415.54 22.57 411.49 24.67 Z" />
<path fill="#010001" opacity="1.00" d=" M 61.87 22.62 C 63.79 20.44 67.23 21.64 69.75 21.79 C 68.87 31.84 68.17 41.92 68.19 52.01 C 68.06 58.00 67.13 64.23 68.97 70.04 C 70.53 73.32 74.19 71.07 76.86 71.25 C 77.02 71.74 77.34 72.71 77.50 73.19 C 73.32 75.40 68.60 76.33 63.89 76.07 C 61.11 74.38 60.35 71.12 60.40 68.07 C 60.29 58.08 60.42 48.07 60.93 38.08 C 60.63 38.15 60.05 38.29 59.76 38.35 C 54.31 50.86 48.83 63.37 43.58 75.96 C 42.82 75.98 41.31 76.01 40.56 76.02 C 36.05 62.68 31.82 49.23 26.77 36.09 C 26.26 48.26 26.15 60.50 24.25 72.56 C 23.69 76.85 18.56 75.63 15.51 75.70 C 21.50 60.55 21.80 43.90 21.73 27.83 C 21.52 23.92 16.70 25.54 14.17 25.49 C 14.14 24.93 14.08 23.82 14.06 23.27 C 18.65 22.41 23.27 21.09 27.99 21.46 C 29.95 21.43 30.78 23.41 31.38 24.93 C 35.65 37.13 40.00 49.31 44.22 61.53 C 45.13 60.15 45.92 58.70 46.56 57.18 C 51.61 45.63 56.66 34.08 61.87 22.62 Z" />
<path fill="#010001" opacity="1.00" d=" M 248.90 23.57 C 250.85 21.45 254.24 22.64 256.75 22.79 C 255.87 32.84 255.16 42.91 255.19 53.01 C 255.07 59.00 254.11 65.25 255.99 71.06 C 257.60 74.37 261.35 71.97 264.07 72.27 C 264.16 72.76 264.32 73.74 264.40 74.23 C 260.32 76.27 255.71 77.57 251.11 76.90 C 247.83 75.84 247.52 71.95 247.40 69.05 C 247.23 58.90 247.56 48.75 247.84 38.61 C 245.93 40.54 245.09 43.18 244.02 45.61 C 239.51 56.03 234.95 66.44 230.60 76.94 C 229.84 76.96 228.32 77.01 227.56 77.04 C 223.05 63.80 218.94 50.39 213.82 37.37 C 213.18 49.43 213.17 61.57 211.25 73.52 C 210.73 77.86 205.56 76.64 202.50 76.69 C 208.51 61.56 208.78 44.91 208.73 28.86 C 208.52 24.92 203.71 26.54 201.16 26.48 C 201.13 25.93 201.09 24.82 201.06 24.26 C 205.66 23.41 210.27 22.09 214.99 22.46 C 216.93 22.43 217.78 24.39 218.36 25.90 C 222.65 38.11 227.00 50.30 231.22 62.53 C 232.12 61.15 232.92 59.70 233.55 58.18 C 238.62 46.62 243.66 35.05 248.90 23.57 Z" />
<path fill="#010001" opacity="1.00" d=" M 268.30 27.90 C 269.36 25.60 271.39 24.06 274.04 24.69 C 277.90 24.00 278.79 29.27 276.65 31.53 C 275.33 33.27 272.89 32.84 271.01 32.68 C 268.85 32.16 268.79 29.62 268.30 27.90 Z" />
<path fill="#010001" opacity="1.00" d=" M 90.45 41.77 C 94.82 40.81 100.52 40.49 103.66 44.31 C 105.44 46.11 104.68 48.81 104.70 51.06 C 99.81 56.95 91.64 57.72 84.55 58.45 C 85.04 63.40 86.41 69.24 91.47 71.40 C 95.30 73.15 98.70 69.76 101.69 67.86 C 102.55 68.03 104.27 68.37 105.13 68.54 C 101.79 72.90 96.86 76.80 91.03 76.18 C 84.85 76.86 79.33 72.00 77.97 66.18 C 75.82 56.62 80.55 44.75 90.45 41.77 M 84.98 56.17 C 88.92 55.50 93.36 54.90 96.22 51.81 C 98.46 49.01 96.31 44.58 92.95 44.05 C 87.55 45.35 85.62 51.30 84.98 56.17 Z" />
<path fill="#010001" opacity="1.00" d=" M 114.22 45.31 C 118.76 41.02 126.06 39.88 131.68 42.54 C 134.89 44.17 135.20 47.89 134.70 51.06 C 129.81 56.94 121.64 57.72 114.55 58.45 C 114.99 63.68 116.70 69.90 122.28 71.74 C 127.22 73.11 130.00 66.80 134.88 67.80 C 131.86 75.20 122.33 78.07 115.22 75.21 C 110.53 73.10 107.70 68.01 107.52 62.99 C 107.13 56.53 109.39 49.73 114.22 45.31 M 120.92 44.87 C 116.78 47.01 115.82 51.97 114.86 56.08 C 118.87 55.59 123.34 54.90 126.23 51.79 C 129.12 48.59 124.78 42.06 120.92 44.87 Z" />
<path fill="#010001" opacity="1.00" d=" M 487.11 42.22 C 491.30 40.81 496.40 40.48 500.27 42.93 C 502.20 45.13 503.31 48.10 502.70 51.05 C 497.81 56.94 489.64 57.72 482.54 58.45 C 483.03 63.40 484.41 69.24 489.47 71.41 C 493.32 73.16 496.73 69.72 499.75 67.82 C 500.60 68.00 502.29 68.35 503.14 68.52 C 499.79 72.92 494.81 76.82 488.94 76.18 C 482.80 76.82 477.34 71.98 475.97 66.20 C 473.95 57.04 478.06 45.94 487.11 42.22 M 482.97 56.17 C 486.91 55.50 491.36 54.90 494.22 51.80 C 496.45 49.01 494.31 44.62 490.98 44.04 C 485.55 45.33 483.62 51.29 482.97 56.17 Z" />
<path fill="#010001" opacity="1.00" d=" M 525.09 43.03 C 528.08 40.86 532.45 40.14 535.70 42.16 C 538.24 43.85 538.89 47.13 538.84 49.99 C 538.70 55.35 537.92 60.67 537.72 66.02 C 537.77 67.96 537.63 70.26 539.15 71.73 C 541.76 71.80 544.29 70.65 546.95 70.84 C 543.97 74.67 538.66 76.30 533.94 75.98 C 531.86 75.96 531.24 73.61 530.95 71.96 C 530.01 64.77 531.89 57.60 531.65 50.41 C 531.64 48.00 528.95 45.76 527.02 47.98 C 519.80 54.86 517.07 65.26 516.13 74.89 C 513.80 75.21 511.47 75.52 509.14 75.76 C 509.52 68.52 509.77 61.27 510.21 54.04 C 510.33 51.00 510.48 47.89 509.51 44.96 C 507.52 44.64 503.92 47.32 502.91 44.99 C 503.02 44.69 503.24 44.11 503.36 43.82 C 507.68 42.67 513.08 39.68 517.16 42.62 C 517.86 46.82 517.00 51.10 516.73 55.31 C 519.01 50.93 521.06 46.13 525.09 43.03 Z" />
<path fill="#010001" opacity="1.00" d=" M 268.48 43.05 C 270.90 42.24 273.45 42.34 275.92 42.92 C 274.91 51.57 273.99 60.30 274.70 69.01 C 274.83 70.42 275.11 72.35 276.65 72.90 C 279.04 72.53 281.46 71.19 283.78 72.69 C 279.78 75.45 274.98 77.75 269.98 76.92 C 267.37 74.88 267.87 70.97 267.58 68.01 C 267.61 59.69 267.37 51.31 268.48 43.05 Z" />
</g>
</svg>
