<?xml version="1.0" encoding="UTF-8" ?>
<!DOCTYPE svg PUBLIC "-//W3C//DTD SVG 1.1//EN" "http://www.w3.org/Graphics/SVG/1.1/DTD/svg11.dtd">
<svg width="500pt" height="195pt" viewBox="0 0 500 195" version="1.1" xmlns="http://www.w3.org/2000/svg">
<g id="#ffffffff">
</g>
<g id="#000000ff">
<path fill="#000000" opacity="1.00" d=" M 249.11 19.05 C 249.79 19.08 251.15 19.14 251.82 19.17 C 253.25 21.69 249.89 23.47 249.97 25.95 C 251.22 28.16 254.13 29.29 254.41 32.09 C 254.44 35.01 253.33 38.16 250.98 40.01 C 249.53 40.46 248.33 39.53 248.15 38.09 C 248.86 36.36 249.86 34.76 250.43 32.97 C 249.62 30.85 247.09 29.98 246.28 27.84 C 245.25 24.68 246.68 21.16 249.11 19.05 Z" />
<path fill="#000000" opacity="1.00" d=" M 257.11 18.95 C 257.87 19.01 259.37 19.14 260.12 19.20 C 261.29 21.67 258.68 23.70 258.11 25.99 C 259.38 27.47 261.59 28.91 260.03 31.05 C 257.51 32.25 255.30 29.73 254.55 27.55 C 253.44 24.42 255.50 21.46 257.11 18.95 Z" />
<path fill="#000000" opacity="1.00" d=" M 242.07 33.05 C 241.03 31.22 238.19 28.99 241.06 27.29 C 246.29 27.76 247.36 34.80 244.20 38.25 C 243.21 40.57 240.27 40.55 239.41 38.14 C 240.39 36.50 241.66 34.96 242.07 33.05 Z" />
<path fill="#000000" opacity="1.00" d=" M 226.48 44.61 C 224.31 43.43 225.83 40.42 228.03 40.78 C 237.56 40.69 247.11 40.84 256.64 40.70 L 256.44 41.83 C 256.69 41.55 257.20 41.00 257.45 40.73 C 262.63 40.89 267.82 40.57 272.99 40.86 C 275.00 40.80 275.49 43.95 273.69 44.66 C 270.53 44.94 267.35 44.76 264.19 44.58 C 272.12 51.16 275.83 61.84 275.21 71.97 C 275.47 78.78 273.31 85.41 269.90 91.23 C 256.71 91.54 243.47 91.64 230.27 91.19 C 221.79 76.76 223.05 56.31 235.70 44.66 C 232.63 44.73 229.54 44.97 226.48 44.61 M 231.64 57.48 C 227.51 67.03 228.26 78.22 232.86 87.47 C 244.34 87.58 255.82 87.48 267.31 87.52 C 274.96 73.54 272.03 52.62 257.18 44.63 C 252.42 44.84 247.65 44.81 242.89 44.65 C 237.91 47.62 233.76 52.04 231.64 57.48 Z" />
<path fill="#000000" opacity="1.00" d=" M 239.18 56.89 C 244.69 56.00 250.42 56.79 256.02 56.50 C 258.05 56.74 260.85 55.75 262.07 57.96 C 267.24 65.05 267.77 75.10 263.75 82.85 C 263.20 83.84 262.46 85.26 261.09 85.01 C 253.69 85.03 246.28 85.11 238.89 84.96 C 237.44 85.21 237.05 83.46 236.40 82.56 C 232.41 74.49 233.08 63.74 239.18 56.89 M 241.21 60.55 C 237.41 66.65 236.90 74.60 240.15 81.05 C 246.83 81.02 253.52 81.02 260.20 81.05 C 263.29 74.54 262.97 66.58 259.01 60.50 C 253.07 60.55 247.14 60.48 241.21 60.55 Z" />
<path fill="#000000" opacity="1.00" d=" M 111.40 107.05 C 113.80 106.85 116.22 106.85 118.63 106.98 C 120.31 114.27 121.89 121.59 123.54 128.89 C 125.17 121.62 126.81 114.36 128.39 107.08 C 130.81 106.83 133.24 106.83 135.66 107.04 C 135.75 118.31 135.69 129.59 135.69 140.86 C 133.83 140.97 131.97 140.99 130.10 140.95 C 129.86 134.15 130.30 127.34 129.78 120.55 C 128.26 127.35 126.93 134.20 125.27 140.98 C 124.39 140.98 122.63 140.97 121.76 140.97 C 120.12 134.20 118.71 127.37 117.30 120.55 C 116.67 127.34 117.25 134.16 116.91 140.97 C 115.14 140.81 113.04 141.54 111.49 140.58 C 111.23 129.41 111.43 118.22 111.40 107.05 Z" />
<path fill="#000000" opacity="1.00" d=" M 139.92 106.92 C 145.57 106.86 151.22 106.86 156.87 106.92 C 156.89 108.79 156.88 110.67 156.83 112.54 C 153.08 112.57 149.32 112.56 145.57 112.56 C 145.56 115.41 145.56 118.25 145.56 121.10 C 148.47 121.11 151.39 121.10 154.30 121.12 C 154.36 122.97 154.38 124.82 154.39 126.68 C 151.45 126.78 148.51 126.77 145.57 126.76 C 145.56 129.64 145.56 132.52 145.56 135.40 C 149.33 135.40 153.10 135.37 156.87 135.44 C 156.89 137.28 156.88 139.12 156.86 140.96 C 151.21 141.07 145.56 141.08 139.92 140.95 C 139.86 129.61 139.85 118.26 139.92 106.92 Z" />
<path fill="#000000" opacity="1.00" d=" M 161.19 106.91 C 166.84 106.86 172.50 106.86 178.15 106.92 C 178.15 108.80 178.11 110.69 178.00 112.58 C 174.27 112.55 170.54 112.55 166.82 112.56 C 166.81 115.41 166.81 118.26 166.81 121.10 C 169.74 121.10 172.68 121.08 175.61 121.18 C 175.63 123.02 175.62 124.85 175.60 126.69 C 172.67 126.77 169.74 126.76 166.82 126.76 C 166.81 129.64 166.81 132.51 166.81 135.39 C 170.55 135.40 174.29 135.40 178.04 135.38 C 178.11 137.24 178.14 139.10 178.15 140.96 C 172.49 141.07 166.83 141.08 161.17 140.95 C 161.10 129.61 161.07 118.26 161.19 106.91 Z" />
<path fill="#000000" opacity="1.00" d=" M 182.72 106.91 C 184.59 106.89 186.46 106.89 188.34 106.90 C 188.51 111.59 188.40 116.28 188.45 120.97 C 190.69 116.33 193.01 111.73 195.18 107.05 C 197.23 106.90 199.29 106.87 201.34 106.92 C 199.14 112.35 196.29 117.50 193.82 122.81 C 196.39 128.90 199.48 134.77 201.70 141.01 C 199.73 141.03 197.76 141.04 195.80 141.07 C 193.69 136.67 191.96 132.12 189.96 127.67 C 187.33 131.65 188.86 136.55 188.33 140.99 C 186.46 140.99 184.59 140.99 182.72 140.97 C 182.57 129.62 182.57 118.26 182.72 106.91 Z" />
<path fill="#000000" opacity="1.00" d=" M 216.21 106.94 C 218.62 106.84 221.04 106.87 223.44 107.10 C 225.04 114.37 226.67 121.62 228.29 128.89 C 229.95 121.60 231.53 114.30 233.19 107.02 C 235.57 106.87 237.96 106.86 240.35 106.90 C 240.51 118.27 240.53 129.65 240.34 141.02 C 238.51 141.00 236.68 140.98 234.85 140.95 C 234.66 134.15 234.92 127.34 234.71 120.54 C 232.88 127.29 231.71 134.20 230.04 141.00 C 228.83 140.96 227.62 140.91 226.42 140.87 C 224.87 134.12 223.58 127.31 221.87 120.60 C 221.56 127.43 222.00 134.26 221.61 141.08 C 219.80 141.03 217.99 140.98 216.19 140.90 C 216.10 129.58 216.06 118.26 216.21 106.94 Z" />
<path fill="#000000" opacity="1.00" d=" M 244.68 106.90 C 246.58 106.89 248.47 106.89 250.38 106.90 C 250.45 118.28 250.51 129.66 250.35 141.04 C 248.46 141.03 246.58 141.02 244.70 141.01 C 244.57 129.64 244.60 118.27 244.68 106.90 Z" />
<path fill="#000000" opacity="1.00" d=" M 253.84 106.91 C 259.50 106.87 265.15 106.85 270.80 106.92 C 270.82 108.77 270.82 110.62 270.79 112.48 C 268.93 112.50 267.07 112.51 265.22 112.52 C 265.18 122.02 265.27 131.52 265.17 141.02 C 263.25 141.01 261.34 140.99 259.43 140.93 C 259.38 131.47 259.42 122.01 259.40 112.55 C 257.51 112.52 255.63 112.48 253.74 112.39 C 253.77 110.56 253.80 108.74 253.84 106.91 Z" />
<path fill="#000000" opacity="1.00" d=" M 273.60 106.91 C 279.26 106.89 284.92 106.80 290.59 106.97 C 290.58 108.81 290.57 110.64 290.53 112.48 C 288.68 112.51 286.82 112.51 284.97 112.52 C 284.92 122.03 285.06 131.53 284.89 141.03 C 282.99 141.02 281.09 140.99 279.19 140.94 C 279.12 131.47 279.18 122.01 279.15 112.55 C 277.27 112.52 275.39 112.49 273.51 112.41 C 273.53 110.58 273.55 108.74 273.60 106.91 Z" />
<path fill="#000000" opacity="1.00" d=" M 307.49 107.64 C 310.53 106.50 313.92 106.78 317.10 107.12 C 319.71 107.31 321.57 109.79 321.58 112.32 C 321.83 119.54 321.63 126.78 321.68 134.01 C 321.73 136.44 321.11 139.42 318.57 140.41 C 315.43 141.33 312.04 141.18 308.84 140.73 C 306.08 140.35 304.54 137.49 304.68 134.90 C 304.55 127.96 304.65 121.02 304.63 114.08 C 304.60 111.69 305.05 108.74 307.49 107.64 M 310.62 135.41 C 312.41 135.46 314.20 135.43 315.99 135.29 C 316.29 127.74 316.35 120.17 315.96 112.63 C 314.18 112.47 312.40 112.44 310.63 112.51 C 310.10 120.11 310.11 127.80 310.62 135.41 Z" />
<path fill="#000000" opacity="1.00" d=" M 325.02 106.91 C 326.89 106.90 328.77 106.91 330.65 106.97 C 332.27 114.80 333.74 122.67 335.32 130.52 C 336.87 122.67 338.40 114.82 339.98 106.98 C 341.87 106.92 343.76 106.89 345.66 106.89 C 343.41 118.31 340.72 129.64 338.16 140.99 C 336.23 141.00 334.31 140.98 332.39 140.90 C 329.95 129.57 327.20 118.30 325.02 106.91 Z" />
<path fill="#000000" opacity="1.00" d=" M 349.19 106.92 C 354.84 106.86 360.48 106.86 366.13 106.92 C 365.92 108.71 366.68 110.92 365.71 112.48 C 362.08 112.71 358.44 112.50 354.82 112.56 C 354.81 115.41 354.81 118.26 354.81 121.10 C 357.75 121.09 360.68 121.08 363.62 121.19 C 363.63 123.02 363.62 124.86 363.59 126.70 C 360.67 126.77 357.74 126.76 354.82 126.76 C 354.81 129.64 354.81 132.51 354.81 135.39 C 358.55 135.40 362.30 135.40 366.04 135.38 C 366.11 137.24 366.14 139.10 366.15 140.96 C 360.49 141.07 354.83 141.08 349.18 140.96 C 349.10 129.61 349.08 118.26 349.19 106.92 Z" />
<path fill="#000000" opacity="1.00" d=" M 370.39 106.97 C 372.23 106.91 374.06 106.90 375.90 106.95 C 378.16 113.31 380.37 119.69 382.76 126.00 C 382.87 119.64 382.73 113.29 382.84 106.93 C 384.71 106.89 386.57 106.86 388.44 106.83 C 388.78 118.19 388.52 129.56 388.58 140.93 C 386.74 140.98 384.92 140.99 383.09 140.97 C 380.80 134.60 378.55 128.22 376.23 121.86 C 376.12 128.22 376.25 134.59 376.14 140.95 C 374.26 141.00 372.37 141.03 370.49 141.07 C 370.23 129.71 370.43 118.34 370.39 106.97 Z" />
<path fill="#000000" opacity="1.00" d=" M 164.37 165.07 C 164.19 160.14 169.91 158.31 173.79 160.14 C 173.74 160.96 173.62 162.61 173.57 163.43 C 172.68 162.12 171.95 160.27 169.97 160.76 C 165.55 160.65 164.48 167.42 168.03 169.41 C 170.10 170.30 172.27 169.13 174.34 168.87 C 171.32 173.42 163.55 170.53 164.37 165.07 Z" />
<path fill="#000000" opacity="1.00" d=" M 188.81 159.66 C 190.40 159.62 191.98 159.57 193.57 159.53 C 193.17 159.92 192.39 160.71 192.00 161.10 C 192.28 164.03 190.66 169.39 194.99 169.81 C 199.31 169.45 197.75 164.12 198.04 161.21 C 197.66 160.78 196.89 159.93 196.51 159.51 C 198.08 159.56 199.66 159.63 201.24 159.69 C 198.41 161.11 200.00 164.63 199.46 167.13 C 199.47 171.12 193.63 172.60 191.39 169.51 C 189.01 166.65 192.19 161.84 188.81 159.66 Z" />
<path fill="#000000" opacity="1.00" d=" M 203.09 159.40 C 203.61 159.46 204.64 159.58 205.16 159.65 C 207.41 162.56 209.65 165.49 211.88 168.43 C 211.57 165.45 212.89 161.92 210.54 159.50 L 214.46 159.48 C 212.02 162.95 213.82 167.54 213.17 171.49 C 209.86 169.03 207.98 165.21 205.33 162.15 C 205.31 164.62 205.31 167.11 205.28 169.59 C 205.77 169.94 206.75 170.65 207.24 171.00 C 205.67 171.03 204.10 171.06 202.54 171.11 C 205.15 167.96 204.10 163.06 203.09 159.40 Z" />
<path fill="#000000" opacity="1.00" d=" M 216.41 159.55 C 219.50 159.57 222.59 159.57 225.68 159.54 C 225.77 160.18 225.94 161.46 226.03 162.10 C 224.70 161.48 223.31 160.98 221.89 160.62 C 222.28 164.07 220.69 168.17 223.19 171.07 C 221.73 171.05 220.27 171.04 218.82 171.06 C 221.62 168.34 219.82 164.04 220.26 160.60 C 218.84 160.91 217.52 161.47 216.25 162.13 C 216.29 161.48 216.37 160.19 216.41 159.55 Z" />
<path fill="#000000" opacity="1.00" d=" M 227.84 159.51 C 230.72 159.80 236.52 158.36 236.39 162.89 L 235.91 165.23 C 235.27 163.95 234.81 162.60 234.39 161.25 C 233.17 161.01 231.95 160.78 230.73 160.57 C 230.73 162.05 230.72 163.54 230.72 165.02 C 232.21 164.86 233.70 165.12 235.05 165.76 L 233.92 166.45 C 235.26 168.12 236.70 169.71 238.27 171.17 C 234.29 171.93 234.15 166.43 230.69 165.93 C 230.60 167.80 230.61 169.76 232.17 171.06 C 230.72 171.04 229.27 171.04 227.83 171.06 C 230.30 168.50 228.82 164.70 229.23 161.55 C 228.76 160.87 228.30 160.19 227.84 159.51 Z" />
<path fill="#000000" opacity="1.00" d=" M 239.66 159.56 C 241.02 159.56 242.38 159.55 243.75 159.55 C 243.47 160.18 243.19 160.80 242.91 161.43 C 243.65 162.69 244.39 163.96 245.13 165.23 C 245.95 163.76 246.79 162.29 247.63 160.82 C 247.23 160.55 246.42 160.01 246.01 159.75 C 247.65 159.64 249.29 159.62 250.93 159.62 C 248.10 162.39 243.71 167.22 247.22 171.08 C 245.75 171.06 244.29 171.06 242.83 171.08 C 246.84 167.45 241.90 162.71 239.66 159.56 Z" />
<path fill="#000000" opacity="1.00" d=" M 256.91 159.74 C 258.60 159.56 260.31 159.57 262.01 159.74 C 261.56 160.02 260.67 160.56 260.23 160.83 C 260.26 161.86 260.33 163.93 260.36 164.97 C 262.26 163.61 264.48 161.96 264.46 159.36 C 265.62 159.48 266.80 159.60 267.97 159.71 C 266.02 161.24 264.33 163.05 262.72 164.93 C 264.45 167.06 266.23 169.17 268.28 171.01 C 266.91 171.02 265.54 171.04 264.18 171.07 C 265.67 168.47 262.02 166.72 260.36 165.33 C 260.32 166.38 260.23 168.50 260.18 169.55 C 260.62 169.92 261.49 170.65 261.92 171.02 C 260.28 171.02 258.64 171.02 257.00 171.02 C 257.43 170.65 258.28 169.91 258.71 169.54 C 258.68 166.64 258.69 163.73 258.67 160.83 C 258.23 160.55 257.35 160.01 256.91 159.74 Z" />
<path fill="#000000" opacity="1.00" d=" M 269.83 159.70 C 271.32 159.63 272.81 159.56 274.31 159.50 C 273.98 159.94 273.33 160.83 273.00 161.27 C 273.40 164.50 271.79 168.51 274.39 171.07 C 272.88 171.05 271.37 171.04 269.87 171.06 C 272.79 168.65 271.13 164.27 271.28 160.98 C 270.92 160.66 270.19 160.02 269.83 159.70 Z" />
<path fill="#000000" opacity="1.00" d=" M 276.21 159.54 C 279.31 159.57 282.42 159.56 285.53 159.56 C 285.55 160.21 285.58 161.51 285.60 162.16 C 284.35 161.49 283.03 160.91 281.65 160.60 C 281.60 163.57 281.62 166.53 281.57 169.49 C 282.00 169.87 282.85 170.62 283.27 170.99 C 281.74 171.02 280.21 171.05 278.69 171.09 C 281.26 168.23 279.63 164.03 279.94 160.58 C 278.51 160.93 277.11 161.42 275.88 162.24 C 275.96 161.57 276.13 160.21 276.21 159.54 Z" />
<path fill="#000000" opacity="1.00" d=" M 290.84 159.95 C 292.81 158.97 295.00 159.71 297.02 160.08 C 296.96 160.93 296.85 162.65 296.80 163.50 C 296.24 162.65 295.75 161.77 295.30 160.87 C 291.01 159.38 287.51 164.28 289.83 167.97 C 291.46 170.86 294.94 169.51 297.36 168.65 C 296.16 171.52 292.19 171.78 289.86 170.18 C 286.53 167.73 286.91 161.61 290.84 159.95 Z" />
<path fill="#000000" opacity="1.00" d=" M 298.82 159.69 C 300.32 159.63 301.81 159.56 303.31 159.50 C 302.99 159.94 302.33 160.82 302.01 161.26 C 302.00 162.11 302.00 163.80 302.00 164.65 C 304.09 164.65 306.19 164.65 308.30 164.64 C 308.29 162.82 307.98 161.05 307.00 159.49 C 308.37 159.54 309.75 159.57 311.13 159.61 C 310.65 160.24 310.17 160.86 309.70 161.49 C 309.74 164.13 309.75 166.77 309.71 169.42 C 310.10 169.81 310.90 170.60 311.29 171.00 C 309.80 171.02 308.31 171.05 306.83 171.08 C 308.27 169.65 308.23 167.66 308.23 165.78 C 306.13 165.77 304.03 165.77 301.93 165.77 C 301.99 167.65 301.68 169.76 303.37 171.08 C 301.86 171.05 300.36 171.04 298.86 171.06 C 301.04 169.74 300.38 167.16 300.48 165.04 C 300.37 163.12 300.97 160.69 298.82 159.69 Z" />
<path fill="#000000" opacity="1.00" d=" M 312.69 159.74 C 315.66 159.51 318.65 159.53 321.64 159.57 C 321.48 160.71 321.32 161.85 321.15 162.99 C 320.87 162.44 320.30 161.35 320.02 160.80 C 318.69 160.79 317.37 160.78 316.05 160.78 C 316.03 161.72 316.01 163.61 316.00 164.55 C 317.57 164.78 319.66 164.07 320.70 165.68 C 319.15 165.77 317.59 165.82 316.04 165.85 C 316.03 166.82 316.01 168.78 316.00 169.75 C 317.37 169.75 318.74 169.75 320.12 169.75 C 320.38 169.23 320.92 168.21 321.18 167.70 C 321.31 168.50 321.55 170.12 321.68 170.93 C 318.74 171.03 315.80 171.02 312.86 171.08 C 315.94 168.66 313.88 164.21 314.43 160.88 C 313.99 160.59 313.12 160.03 312.69 159.74 Z" />
<path fill="#000000" opacity="1.00" d=" M 323.85 159.57 C 324.47 159.57 325.71 159.57 326.33 159.56 C 328.61 162.50 330.87 165.46 333.13 168.41 C 333.13 166.12 333.14 163.82 333.16 161.53 C 332.66 160.85 332.16 160.16 331.66 159.48 C 333.21 159.56 334.76 159.66 336.32 159.79 C 335.87 160.05 334.97 160.58 334.52 160.84 C 334.48 164.37 334.56 167.91 334.42 171.44 C 331.09 169.03 329.23 165.20 326.57 162.16 C 327.05 165.07 325.25 169.05 328.23 171.06 C 326.75 171.05 325.28 171.06 323.82 171.08 C 326.31 168.53 324.80 164.71 325.23 161.56 C 324.77 160.90 324.31 160.23 323.85 159.57 Z" />
<path fill="#000000" opacity="1.00" d=" M 178.42 160.28 C 181.93 157.89 187.32 160.61 187.15 164.95 C 187.68 168.83 183.61 172.26 179.89 170.93 C 175.19 169.88 174.47 162.68 178.42 160.28 M 179.35 161.36 C 176.17 163.34 176.96 169.60 181.09 169.81 C 184.26 170.32 186.25 166.82 185.42 164.05 C 185.15 161.25 181.60 159.87 179.35 161.36 Z" />
</g>
</svg>
